<svg width="71" height="71" viewBox="0 0 71 71" fill="none" xmlns="http://www.w3.org/2000/svg">
<g id="Icon_3d max">
<path id="Vector" d="M45.5851 2.07349C45.5249 2.07349 45.4593 2.07349 45.3937 2.08442H16.1632C15.6546 2.08442 15.1843 2.35786 14.9382 2.8063L8.03119 15.2313C7.74681 15.6086 7.67025 16.0954 7.81791 16.5383C7.97103 16.9813 8.33744 17.3204 8.79135 17.4407C8.79135 17.4407 8.79681 17.4407 8.80228 17.4407L23.2507 22.2586L9.6226 34.6508C9.33275 34.9133 9.16322 35.2907 9.16322 35.6844C9.16322 36.0782 9.33275 36.4555 9.6226 36.718L23.2507 49.1102L8.79681 53.9282C8.34291 54.0485 7.98197 54.3821 7.82885 54.8251C7.67025 55.2626 7.74681 55.7547 8.02572 56.1266L14.9382 68.5626C15.1843 69.011 15.6546 69.2844 16.1632 69.2844H45.2788C45.6507 69.3719 46.039 69.3063 46.3562 69.104C46.6788 68.9016 46.9031 68.5735 46.9796 68.2016L63.5226 36.4938C63.8781 35.9907 63.8671 35.3125 63.4953 34.8258L46.8976 3.01411C46.7062 2.4563 46.1812 2.07895 45.5851 2.07349ZM16.989 4.88442H41.9976L31.4538 14.679C31.4374 14.679 31.421 14.6844 31.4046 14.6844H11.5476L16.989 4.88442ZM45.1695 5.75942L58.7101 31.6977L34.1007 16.0407L45.1695 5.75942ZM17.7984 17.4844H28.4296L25.6187 20.093L17.7984 17.4844ZM32.9632 18.6383L49.807 29.3571L32.9632 22.8711V18.6383ZM30.1632 19.6938V21.7938L28.5609 21.1813L30.1632 19.6938ZM26.264 23.3032L30.1632 24.8016V46.5672L26.264 48.0657L12.6413 35.6844L26.264 23.3032ZM32.9632 25.879L58.4585 35.6844L32.9632 45.4899V25.879ZM58.7046 39.6711L45.1695 65.6094L34.1007 55.3282L58.7046 39.6711ZM49.807 42.0118L32.9632 52.7305V48.4922L49.807 42.0118ZM30.1632 49.5696V51.6751L28.5609 50.1876L30.1632 49.5696ZM25.6187 51.2758L28.4296 53.8844H17.7984L25.6187 51.2758ZM11.5476 56.6844H31.4484L41.9976 66.4844H16.989L11.5476 56.6844Z" fill="white"/>
</g>
</svg>
