<svg width="64" height="63" viewBox="0 0 64 63" fill="none" xmlns="http://www.w3.org/2000/svg">
<g id="Icon_blender">
<path id="Vector" d="M33.0405 6.71766C32.8003 6.69801 32.5595 6.70147 32.3204 6.72742C31.364 6.83124 30.4455 7.29625 29.8013 8.09682C28.5133 9.69937 28.7713 12.081 30.3725 13.3694L34.5002 16.6867H13.2831C11.2272 16.6867 9.53371 18.3802 9.53371 20.436C9.53371 22.4919 11.2272 24.1854 13.2831 24.1854H22.5759L4.77865 38.5702C3.1186 39.9121 2.85658 42.3845 4.1977 44.0453C5.53964 45.7054 8.01198 45.9674 9.67284 44.6263L18.4165 37.5572C19.1148 47.5783 28.33 55.4301 39.5286 55.4301C51.1745 55.4301 60.775 46.965 60.775 36.3708C60.775 29.6388 56.8607 23.7522 51.0599 20.3799L35.0738 7.52563H35.0714C34.4705 7.04263 33.7609 6.77662 33.0405 6.71766ZM32.5864 9.19771C32.902 9.16342 33.2319 9.25269 33.5067 9.47354L49.5513 22.3742C49.6021 22.4149 49.656 22.4517 49.7125 22.484C54.8997 25.4609 58.2755 30.5704 58.2755 36.3708C58.2755 45.4483 49.9715 52.9305 39.5286 52.9305C29.0858 52.9305 20.7818 45.4483 20.7818 36.3708C20.7818 35.9725 20.8153 35.5504 20.855 35.0942C20.8765 34.8498 20.8256 34.6046 20.7086 34.389C20.5917 34.1733 20.4139 33.9969 20.1973 33.8816C19.9808 33.7663 19.7352 33.7173 19.491 33.7406C19.2468 33.764 19.0149 33.8586 18.8241 34.0128L8.10084 42.6808C7.48973 43.1726 6.63538 43.0822 6.14317 42.4733C5.6496 41.8621 5.74109 41.0084 6.35065 40.5156L26.8965 23.9071C27.0973 23.7446 27.2427 23.5238 27.3129 23.2752C27.383 23.0266 27.3744 22.7623 27.2882 22.5188C27.2021 22.2753 27.0426 22.0644 26.8317 21.9153C26.6208 21.7661 26.3688 21.6859 26.1105 21.6858H13.2831C12.5769 21.6858 12.0333 21.1422 12.0333 20.436C12.0333 19.7299 12.5769 19.1863 13.2831 19.1863H38.0494C38.3081 19.1863 38.5604 19.106 38.7716 18.9565C38.9827 18.807 39.1423 18.5957 39.2283 18.3517C39.3143 18.1077 39.3224 17.8431 39.2516 17.5942C39.1808 17.3454 39.0345 17.1247 38.8329 16.9625L31.9396 11.4215C31.3911 10.9801 31.3075 10.2135 31.7492 9.66394C31.9699 9.38969 32.2709 9.23199 32.5864 9.19771ZM39.5286 22.9356C32.0519 22.9356 25.781 28.1474 25.781 34.8086C25.781 41.4698 32.0519 46.6816 39.5286 46.6816C47.0054 46.6816 53.2763 41.4698 53.2763 34.8086C53.2763 28.1474 47.0054 22.9356 39.5286 22.9356ZM39.5286 25.4352C45.857 25.4352 50.7767 29.7368 50.7767 34.8086C50.7767 39.8804 45.857 44.182 39.5286 44.182C33.2002 44.182 28.2805 39.8804 28.2805 34.8086C28.2805 29.7368 33.2002 25.4352 39.5286 25.4352ZM39.5286 27.9348C35.3868 27.9348 32.0299 30.733 32.0299 34.1837C32.0299 37.6344 35.3868 40.4327 39.5286 40.4327C43.6704 40.4327 47.0274 37.6344 47.0274 34.1837C47.0274 30.733 43.6704 27.9348 39.5286 27.9348ZM39.5286 30.4343C42.2382 30.4343 44.5278 32.1516 44.5278 34.1837C44.5278 36.2159 42.2382 37.9331 39.5286 37.9331C36.8191 37.9331 34.5295 36.2159 34.5295 34.1837C34.5295 32.1516 36.8191 30.4343 39.5286 30.4343Z" fill="white"/>
</g>
</svg>
