<svg width="46" height="46" viewBox="0 0 46 46" fill="none" xmlns="http://www.w3.org/2000/svg">
<g id="Icon_instagram">
<path id="Vector" d="M13.4903 4.6001C7.5732 4.6001 2.75999 9.41776 2.75999 15.3364V30.6698C2.75999 36.5869 7.57766 41.4001 13.4963 41.4001H28.8297C34.7468 41.4001 39.56 36.5824 39.56 30.6638V15.3304C39.56 9.4133 34.7423 4.6001 28.8237 4.6001H13.4903ZM31.8933 10.7334C32.7397 10.7334 33.4267 11.4204 33.4267 12.2668C33.4267 13.1132 32.7397 13.8001 31.8933 13.8001C31.0469 13.8001 30.36 13.1132 30.36 12.2668C30.36 11.4204 31.0469 10.7334 31.8933 10.7334ZM21.16 13.8001C26.2338 13.8001 30.36 17.9263 30.36 23.0001C30.36 28.0739 26.2338 32.2001 21.16 32.2001C16.0862 32.2001 11.96 28.0739 11.96 23.0001C11.96 17.9263 16.0862 13.8001 21.16 13.8001ZM21.16 16.8668C19.5333 16.8668 17.9733 17.513 16.8231 18.6632C15.6728 19.8134 15.0267 21.3734 15.0267 23.0001C15.0267 24.6268 15.6728 26.1868 16.8231 27.337C17.9733 28.4872 19.5333 29.1334 21.16 29.1334C22.7867 29.1334 24.3467 28.4872 25.4969 27.337C26.6471 26.1868 27.2933 24.6268 27.2933 23.0001C27.2933 21.3734 26.6471 19.8134 25.4969 18.6632C24.3467 17.513 22.7867 16.8668 21.16 16.8668Z" fill="white"/>
</g>
</svg>
