<svg width="64" height="63" viewBox="0 0 64 63" fill="none" xmlns="http://www.w3.org/2000/svg">
<g id="Icon_illustrator">
<path id="Vector" d="M18.2517 8.25073C12.8822 8.25073 8.48773 12.6452 8.48773 18.0147V45.3538C8.48773 50.7234 12.8822 55.1178 18.2517 55.1178H45.5908C50.9604 55.1178 55.3548 50.7234 55.3548 45.3538V18.0147C55.3548 12.6452 50.9604 8.25073 45.5908 8.25073H18.2517ZM18.2517 12.1563H45.5908C48.85 12.1563 51.4492 14.7555 51.4492 18.0147V45.3538C51.4492 48.613 48.85 51.2122 45.5908 51.2122H18.2517C14.9925 51.2122 12.3933 48.613 12.3933 45.3538V18.0147C12.3933 14.7555 14.9925 12.1563 18.2517 12.1563ZM27.975 19.9675C27.562 19.9759 27.1622 20.1151 26.8333 20.365C26.5043 20.6149 26.2631 20.9627 26.1442 21.3584L20.2859 40.8863C20.212 41.1321 20.1873 41.39 20.2131 41.6453C20.2389 41.9007 20.3148 42.1484 20.4364 42.3744C20.558 42.6004 20.7229 42.8003 20.9217 42.9625C21.1206 43.1248 21.3494 43.2463 21.5952 43.3201C21.841 43.3939 22.0989 43.4186 22.3543 43.3927C22.6096 43.3668 22.8573 43.2908 23.0833 43.1692C23.3093 43.0476 23.5091 42.8826 23.6713 42.6837C23.8335 42.4849 23.955 42.256 24.0287 42.0102L24.7839 39.4954H31.2474L32.0026 42.0102C32.0764 42.256 32.1978 42.4849 32.36 42.6837C32.5223 42.8826 32.7221 43.0476 32.948 43.1692C33.174 43.2908 33.4217 43.3668 33.6771 43.3927C33.9324 43.4186 34.1903 43.3939 34.4361 43.3201C34.6819 43.2463 34.9108 43.1248 35.1096 42.9625C35.3084 42.8003 35.4734 42.6004 35.5949 42.3744C35.7165 42.1484 35.7924 41.9007 35.8182 41.6453C35.8441 41.39 35.8193 41.1321 35.7455 40.8863L29.8871 21.3584C29.7643 20.9494 29.5108 20.5919 29.1654 20.3407C28.8201 20.0895 28.4019 19.9584 27.975 19.9675ZM40.3834 21.9203C39.6928 21.9203 39.0306 22.1946 38.5423 22.6829C38.054 23.1712 37.7796 23.8335 37.7796 24.524C37.7796 25.2146 38.054 25.8768 38.5423 26.3651C39.0306 26.8534 39.6928 27.1277 40.3834 27.1277C41.0739 27.1277 41.7362 26.8534 42.2245 26.3651C42.7128 25.8768 42.9871 25.2146 42.9871 24.524C42.9871 23.8335 42.7128 23.1712 42.2245 22.6829C41.7362 22.1946 41.0739 21.9203 40.3834 21.9203ZM28.0157 28.7195L30.0753 35.5899H25.9561L28.0157 28.7195ZM40.3529 29.0526C39.8354 29.0607 39.3423 29.2738 38.9819 29.6452C38.6214 30.0166 38.4232 30.5159 38.4306 31.0333V41.4482C38.4269 41.707 38.4747 41.9639 38.5712 42.2041C38.6677 42.4442 38.811 42.6627 38.9927 42.847C39.1744 43.0313 39.3909 43.1776 39.6296 43.2775C39.8684 43.3774 40.1246 43.4288 40.3834 43.4288C40.6422 43.4288 40.8984 43.3774 41.1371 43.2775C41.3759 43.1776 41.5924 43.0313 41.7741 42.847C41.9558 42.6627 42.099 42.4442 42.1955 42.2041C42.292 41.9639 42.3398 41.707 42.3362 41.4482V31.0333C42.3399 30.772 42.2912 30.5125 42.1928 30.2703C42.0944 30.0281 41.9484 29.8082 41.7635 29.6235C41.5785 29.4387 41.3584 29.293 41.1161 29.195C40.8737 29.0969 40.6142 29.0485 40.3529 29.0526Z" fill="white"/>
</g>
</svg>
