<svg width="63" height="63" viewBox="0 0 63 63" fill="none" xmlns="http://www.w3.org/2000/svg">
<g id="Icon_photoshop">
<path id="Vector" d="M17.5673 8.25073C12.1978 8.25073 7.80332 12.6452 7.80332 18.0147V45.3538C7.80332 50.7234 12.1978 55.1178 17.5673 55.1178H44.9064C50.2759 55.1178 54.6704 50.7234 54.6704 45.3538V18.0147C54.6704 12.6452 50.2759 8.25073 44.9064 8.25073H17.5673ZM17.5673 12.1563H44.9064C48.1656 12.1563 50.7648 14.7555 50.7648 18.0147V45.3538C50.7648 48.613 48.1656 51.2122 44.9064 51.2122H17.5673C14.3081 51.2122 11.7089 48.613 11.7089 45.3538V18.0147C11.7089 14.7555 14.3081 12.1563 17.5673 12.1563ZM21.4729 19.9675C20.955 19.9675 20.4583 20.1733 20.0921 20.5395C19.7259 20.9057 19.5201 21.4024 19.5201 21.9203V41.4482C19.5164 41.707 19.5642 41.9639 19.6607 42.2041C19.7572 42.4442 19.9005 42.6627 20.0822 42.847C20.2639 43.0313 20.4804 43.1776 20.7191 43.2775C20.9579 43.3774 21.2141 43.4288 21.4729 43.4288C21.7317 43.4288 21.9879 43.3774 22.2266 43.2775C22.4654 43.1776 22.6819 43.0313 22.8636 42.847C23.0453 42.6627 23.1885 42.4442 23.285 42.2041C23.3815 41.9639 23.4293 41.707 23.4257 41.4482V34.288H24.7275C28.6589 34.288 31.8878 31.0591 31.8878 27.1277C31.8878 23.1964 28.6589 19.9675 24.7275 19.9675H21.4729ZM23.4257 23.8731H24.7275C26.5478 23.8731 27.9822 25.3074 27.9822 27.1277C27.9822 28.948 26.5478 30.3824 24.7275 30.3824H23.4257V23.8731ZM37.8123 27.7787C35.1394 27.7787 32.9303 29.9878 32.9303 32.6607C32.9303 35.3336 35.1394 37.5426 37.8123 37.5426H39.3735C39.937 37.5426 40.3499 37.9555 40.3499 38.519C40.3499 39.0826 39.937 39.4954 39.3735 39.4954H36.574C36.3989 39.4954 36.261 39.4352 36.1443 39.3327C36.1213 39.3126 36.0985 39.2924 36.0832 39.2742C35.9216 39.0681 35.7202 38.8965 35.4909 38.7698C35.2616 38.6431 35.0092 38.5639 34.7487 38.5367C34.4881 38.5096 34.2248 38.5351 33.9743 38.6118C33.7239 38.6885 33.4914 38.8148 33.2908 38.9832C33.0901 39.1516 32.9254 39.3587 32.8064 39.592C32.6874 39.8254 32.6166 40.0803 32.5981 40.3416C32.5797 40.6029 32.614 40.8653 32.699 41.113C32.784 41.3608 32.918 41.589 33.093 41.7839C33.2418 41.961 33.4014 42.123 33.5685 42.2695C34.3683 42.9716 35.4315 43.401 36.574 43.401H39.3735C42.0464 43.401 44.2555 41.1919 44.2555 38.519C44.2555 35.8461 42.0464 33.6371 39.3735 33.6371H37.8123C37.2487 33.6371 36.8359 33.2242 36.8359 32.6607C36.8359 32.0971 37.2487 31.6843 37.8123 31.6843H39.5693C39.8648 31.6843 40.0859 31.8622 40.177 32.1013C40.2639 32.3467 40.3991 32.5723 40.5744 32.7647C40.7498 32.9572 40.9619 33.1126 41.1983 33.2219C41.4346 33.3312 41.6904 33.3921 41.9506 33.4011C42.2109 33.41 42.4702 33.3669 42.7135 33.2741C42.9568 33.1814 43.1791 33.0409 43.3674 32.861C43.5556 32.6811 43.7059 32.4654 43.8096 32.2265C43.9132 31.9876 43.968 31.7305 43.9708 31.4701C43.9736 31.2097 43.9243 30.9514 43.8258 30.7104C43.1696 28.9889 41.4948 27.7787 39.5693 27.7787H37.8123Z" fill="white"/>
</g>
</svg>
