<svg width="130" height="49" viewBox="0 0 130 49" fill="none" xmlns="http://www.w3.org/2000/svg">
<g id="Navbar_logo" clip-path="url(#clip0_30_183)">
<g id="Group">
<path id="Vector" d="M54.6438 0.210297C31.118 1.80858 12.5688 7.52875 4.2273 15.8006C-1.11691 21.1001 -1.25829 27.297 3.85971 32.7087C10.5895 39.8309 25.7172 45.3548 44.8885 47.7102C57.3866 49.2524 72.9103 49.2524 85.1822 47.7102C103.618 45.4109 118.633 40.0833 125.504 33.3817C130.594 28.4747 131.301 22.7825 127.455 17.6232C121.291 9.32331 103.336 2.84606 80.3752 0.630898C74.9462 0.0981369 59.8749 -0.154224 54.6438 0.210297ZM74.72 1.3319C93.6933 2.50958 110.094 6.60343 119.877 12.604C123.101 14.5668 126.692 18.0438 127.766 20.2589C128.473 21.7451 128.586 22.2498 128.586 24.4649C128.586 26.6801 128.501 27.1848 127.794 28.5308C126.663 30.6898 125.306 32.2601 122.903 34.1388C107.125 46.5886 66.4916 51.4395 33.8608 44.794C17.7716 41.5133 5.58456 35.2604 2.27624 28.5588C1.45623 26.9605 1.34313 26.4558 1.34313 24.4649C1.34313 22.4741 1.45623 21.9974 2.30452 20.2589C8.44046 7.92131 41.4671 -0.715023 74.72 1.3319Z" fill="white"/>
<path id="Vector_2" d="M49.8369 11.2581C23.54 11.5946 21.0234 11.6506 19.9489 12.0993C18.3371 12.7722 17.0364 14.2584 17.0364 15.436C17.0364 16.5016 17.2344 16.8381 18.0827 17.2867C19.0441 17.7914 19.2985 17.6512 19.2985 16.6698C19.2985 16.0529 19.5247 15.5202 19.9772 15.0996C20.5992 14.5388 20.9668 14.4827 25.1234 14.3425C31.6835 14.1462 78.1979 13.6976 78.4241 13.8378C78.5373 13.8938 78 16.9222 77.2365 20.5954C75.851 27.1288 75.8227 27.269 74.8613 28.1382C73.7586 29.1196 73.6737 29.428 74.3241 30.0449C74.8048 30.5216 75.851 30.6338 78.5373 30.5216C81.0256 30.4094 81.9021 29.428 80.658 28.1102L80.0642 27.4933L81.3649 21.3525C82.0718 17.9877 82.7504 14.9033 82.8352 14.5388L83.0049 13.8658L97.4258 14.0621C106.418 14.1742 112.045 14.3425 112.384 14.5388C112.723 14.735 112.865 15.0154 112.752 15.3239C112.243 16.9502 113.883 17.2306 115.325 15.8006C116.936 14.2023 116.371 12.3797 114.137 11.7348C113.656 11.5946 108.34 11.4263 102.289 11.3142C96.2099 11.23 88.4057 11.0898 84.8994 11.0338C81.3932 10.9777 65.615 11.0898 49.8369 11.2581Z" fill="white"/>
<path id="Vector_3" d="M38.6395 16.782C38.1588 16.9222 37.5933 17.2026 37.3953 17.4269C37.056 17.8755 37.2539 18.9971 37.7064 18.9971C38.1305 18.9971 37.9891 20.2029 37.1126 24.2406C36.5188 26.9044 36.0946 28.2504 35.6705 28.699C34.3415 30.101 35.7836 30.9422 39.0353 30.6898C41.4388 30.5216 42.6264 29.4561 41.4954 28.5308C40.9016 28.026 40.9581 26.7642 41.7781 23.0069C42.3437 20.5113 42.683 19.5299 43.192 18.9971C43.9837 18.184 44.1251 16.8941 43.4464 16.6418C42.7961 16.3894 39.6574 16.4735 38.6395 16.782Z" fill="white"/>
<path id="Vector_4" d="M45.652 16.9222C44.9168 17.4269 44.8603 18.3242 45.5106 19.0532C45.9631 19.5579 45.9631 19.8103 45.1996 23.5677C44.5492 26.9325 44.2948 27.6615 43.5879 28.4747C42.4851 29.7084 42.8244 30.3814 44.6058 30.6618C47.6031 31.0824 49.7238 29.5402 48.2817 27.998C47.8858 27.5213 47.8858 27.4092 48.7624 23.9042L49.0452 22.8106L50.0066 25.3062C51.4487 29.0074 51.4769 29.0916 51.9293 29.0916C52.1556 29.0916 53.3149 27.7456 54.559 26.1193C55.8032 24.4369 56.7929 23.3433 56.8494 23.5957C56.906 23.82 56.7929 24.7454 56.6515 25.6146C56.4253 26.7923 56.086 27.4933 55.4922 28.1102C55.0115 28.5868 54.6439 29.2598 54.6439 29.5963C54.6439 31.2506 60.8646 30.9422 61.5433 29.2318C61.6281 28.9794 61.515 28.3906 61.2605 27.8858C60.8364 27.0727 60.8364 26.7923 61.4302 23.3714C61.9957 20.2309 62.2219 19.5579 62.9005 18.7728C63.3529 18.2401 63.664 17.6793 63.6074 17.511C63.3812 16.782 62.1088 16.4455 59.8467 16.5296C57.0756 16.6418 56.8777 16.7539 54.8701 20.0907C53.2583 22.7265 53.2866 22.7545 52.6645 19.4458C52.1556 16.7259 51.8162 16.4735 48.7624 16.4735C46.981 16.4735 46.1044 16.5857 45.652 16.9222Z" fill="white"/>
<path id="Vector_5" d="M66.1523 16.7539C64.5971 17.2306 64.1164 18.0718 64.9647 18.9691C65.304 19.3897 65.2757 19.9225 64.5405 23.3433C63.6074 27.8017 63.5226 28.1382 62.7874 28.8672C62.4764 29.1757 62.3067 29.5682 62.3633 29.7365C62.6743 30.6898 65.5302 31.0824 67.7075 30.4655C69.0082 30.129 69.4323 29.1196 68.6406 28.2504C68.0751 27.6335 68.1033 27.3811 69.093 22.7265C69.5737 20.4833 69.8847 19.6701 70.5068 18.9691C72.0337 17.2867 71.3834 16.4455 68.584 16.5016C67.6792 16.5016 66.5764 16.6418 66.1523 16.7539Z" fill="white"/>
<path id="Vector_6" d="M91.1485 16.7259C89.2257 17.0624 88.3208 18.4924 89.3105 19.586C89.7064 20.0066 89.6781 20.3711 88.9995 23.3714C88.2077 26.8203 88.0098 27.3531 87.1332 28.5027C86.3132 29.5402 86.4263 30.3814 87.4726 30.7459C88.6036 31.1385 90.385 31.1385 91.7423 30.774C92.9016 30.4375 93.6085 29.1757 93.0995 28.2504C92.7885 27.6615 92.7319 26.568 92.9864 25.895C93.1844 25.3342 94.7678 25.3062 95.4747 25.8109C95.7858 26.0352 96.0685 26.8484 96.2665 28.2223C96.4927 29.7926 96.7472 30.4936 97.341 31.1385C98.0479 31.9516 98.2458 32.0077 100.536 32.1199C103.166 32.2601 103.675 31.9797 102.176 31.1946C101.102 30.6618 100.989 30.2412 101.073 27.325C101.13 25.3342 101.045 24.8295 100.621 24.3528C100.14 23.82 100.14 23.792 101.017 23.3433C102.176 22.7545 102.996 21.3525 102.996 19.9785C102.996 18.5765 102.374 17.6512 101.13 17.1465C99.9989 16.6698 93.043 16.3894 91.1485 16.7259ZM97.0299 19.586C99.5748 20.4552 98.2741 22.6423 95.192 22.6423H93.8913L94.0609 21.7731C94.1457 21.2964 94.2306 20.7356 94.2306 20.5113C94.2306 20.0066 95.0223 19.2775 95.6161 19.2775C95.8989 19.2775 96.5209 19.4177 97.0299 19.586Z" fill="white"/>
<path id="Vector_7" d="M105.909 16.782C104.693 17.1185 104.184 18.0157 104.806 18.6887C105.4 19.3336 105.4 19.614 104.495 24.0163C103.958 26.7923 103.59 27.97 103.081 28.5308C102.742 28.9514 102.431 29.5122 102.431 29.7365C102.431 30.6338 105.654 31.0824 107.86 30.4655C109.132 30.129 109.585 29.1196 108.821 28.2784C108.227 27.6335 108.256 27.1568 109.104 23.1471C109.698 20.3431 109.98 19.5579 110.659 18.8009C111.592 17.7073 111.649 17.511 111.027 16.9222C110.518 16.4175 107.464 16.3333 105.909 16.782Z" fill="white"/>
<path id="Vector_8" d="M23.3986 17.0343C21.8434 17.5391 21.391 18.885 22.409 19.9785L22.9745 20.5674L22.3524 23.9322C21.8152 26.9605 21.6738 27.3531 20.7689 28.2784C19.6944 29.4561 19.6662 30.1571 20.7124 30.7179C21.7586 31.2787 29.2235 31.0263 30.7504 30.3814C32.6732 29.5682 33.6629 28.3906 34.4546 25.8669C35.9815 20.9599 35.6422 18.6046 33.2388 17.5391C32.136 17.0624 31.2029 16.9502 28.0642 16.8661C25.9718 16.81 23.8793 16.8941 23.3986 17.0343ZM29.3084 19.8383C30.4677 20.2589 30.7504 21.1843 30.3263 23.2592C29.8173 25.8389 29.2518 27.1007 28.3187 27.5494C27.5835 27.9419 26.0849 28.1382 26.0849 27.8578C26.0849 27.4372 27.5552 19.9785 27.6683 19.8103C27.8663 19.4738 28.4318 19.5019 29.3084 19.8383Z" fill="white"/>
<path id="Vector_9" d="M111.762 25.6707C111.762 25.8109 112.299 26.1473 112.921 26.4558C114.363 27.0727 115.72 28.3906 115.72 29.0916C115.72 31.8956 104.834 36.2418 95.6444 37.111L93.5519 37.3073L94.9375 37.9242L96.3513 38.513L95.2202 39.2421C94.5981 39.6066 93.8347 40.0833 93.5236 40.2515C92.534 40.8123 93.5519 40.616 98.8961 39.3262C105.032 37.8401 108.227 36.7745 111.507 35.0921C116.569 32.5124 118.294 29.9328 116.427 27.7456C115.296 26.3997 111.762 24.8575 111.762 25.6707Z" fill="white"/>
<path id="Vector_10" d="M13.7847 28.5027C11.975 29.3159 10.5329 30.7179 10.5329 31.6152C10.5329 32.4564 11.7771 33.6901 13.5585 34.6154C17.404 36.6624 25.491 38.8215 30.2414 39.1019L32.8146 39.2701L32.447 40.3356C32.2208 40.9525 32.1077 41.4292 32.1925 41.4292C32.2773 41.4292 34.0022 40.5599 36.0098 39.4944L39.714 37.5597L36.8015 36.4381C32.1642 34.6996 32.2773 34.6996 32.8711 36.2137C33.1256 36.9147 33.0973 36.9428 32.1359 36.9428C30.6656 36.9428 25.6607 36.1857 21.702 35.3725C11.8336 33.3256 9.76944 31.1665 15.1136 28.4747C17.1495 27.4372 15.9902 27.4652 13.7847 28.5027Z" fill="white"/>
<path id="Vector_11" d="M73.5041 34.5313C72.1468 35.036 71.4117 35.681 70.733 36.9989C70.0544 38.2887 70.0544 39.2981 70.733 40.7282C71.9772 43.392 74.4938 44.3453 77.1517 43.1396C78.7352 42.4386 79.6118 41.1488 79.7532 39.2981C79.9228 37.3073 78.9331 35.5688 77.18 34.7276C75.7662 34.0546 75.0027 33.9986 73.5041 34.5313ZM77.2083 37.9522L77.8304 39.214L77.0669 40.3356C76.3883 41.289 76.1621 41.4292 75.4552 41.289C75.0027 41.2049 74.3524 41.1488 74.0131 41.1488C73.5324 41.1488 73.2779 40.8684 72.9103 39.887C72.4013 38.5971 72.4579 38.3448 73.391 37.2793C73.8434 36.8026 74.2676 36.6624 75.2855 36.6624C76.5579 36.6624 76.6145 36.6904 77.2083 37.9522Z" fill="white"/>
<path id="Vector_12" d="M53.1735 34.6154C52.8059 34.6996 52.6645 35.008 52.6645 35.709V36.6624L53.8804 36.4941C55.4073 36.2978 56.397 36.8867 55.7749 37.6438C55.4639 38.0083 55.1245 38.0644 54.3045 37.9522C53.3431 37.784 53.23 37.8401 53.0604 38.4569C52.8059 39.4944 53.1169 39.7468 54.6156 39.7468C56.1708 39.7468 56.7363 40.1393 56.3121 40.9245C56.0011 41.4853 54.5873 41.5974 53.3997 41.1488C52.7211 40.8964 52.6362 40.9805 52.2686 41.7937C51.9293 42.5788 51.9293 42.7471 52.2969 43.0275C52.8907 43.4761 55.4921 43.7845 57.019 43.5602C59.4791 43.1957 60.6101 40.9525 59.0549 39.4944C58.3763 38.8775 58.3763 38.8495 58.9136 38.3167C59.988 37.2512 59.4508 35.4566 57.8956 34.8117C56.9908 34.4472 54.2762 34.335 53.1735 34.6154Z" fill="white"/>
<path id="Vector_13" d="M64.3991 35.036C63.1833 35.4566 61.7412 36.5782 61.1191 37.6157C59.9881 39.4383 60.695 42.2984 62.4764 43.2237C65.1909 44.5977 68.782 43.5602 69.2344 41.289C69.6303 39.0738 68.3861 37.784 65.813 37.784C64.5123 37.7559 64.4557 37.7279 64.9364 37.3634C65.2474 37.139 66.0957 36.8586 66.8592 36.7745C67.9902 36.6063 68.2164 36.4941 68.0468 36.1296C67.962 35.8772 67.7923 35.4566 67.7357 35.1762C67.5661 34.6154 65.813 34.5313 64.3991 35.036ZM65.9826 39.7187C66.5764 40.1674 66.6047 40.3356 66.2937 40.9805C65.6999 42.2704 63.6922 41.8498 63.6922 40.3917C63.6922 39.8029 64.3143 39.214 64.9929 39.186C65.1909 39.186 65.615 39.4103 65.9826 39.7187Z" fill="white"/>
</g>
</g>
<defs>
<clipPath id="clip0_30_183">
<rect width="130" height="49" fill="white"/>
</clipPath>
</defs>
</svg>
